<svg width="55" height="40" viewBox="0 0 55 40" fill="none" xmlns="http://www.w3.org/2000/svg">
<path d="M20.183 20C20.183 21.8223 20.9274 23.5701 22.2522 24.8587C23.5771 26.1472 25.374 26.8712 27.2477 26.8712C29.1213 26.8712 30.9183 26.1472 32.2431 24.8587C33.568 23.5701 34.3123 21.8223 34.3123 20C34.3123 18.1777 33.568 16.4299 32.2431 15.1414C30.9183 13.8528 29.1213 13.1288 27.2477 13.1288C25.374 13.1288 23.5771 13.8528 22.2522 15.1414C20.9274 16.4299 20.183 18.1777 20.183 20ZM54.6357 18.4172C48.656 6.16565 39.6171 0 27.5 0C15.3766 0 6.34394 6.16564 0.36424 18.4233C0.124392 18.9173 0 19.4568 0 20.0031C0 20.5493 0.124392 21.0889 0.36424 21.5828C6.34394 33.8344 15.3829 40 27.5 40C39.6234 40 48.656 33.8344 54.6357 21.5767C55.1214 20.5828 55.1214 19.4294 54.6357 18.4172ZM27.2477 30.7975C21.1166 30.7975 16.1461 25.9632 16.1461 20C16.1461 14.0368 21.1166 9.20245 27.2477 9.20245C33.3788 9.20245 38.3492 14.0368 38.3492 20C38.3492 25.9632 33.3788 30.7975 27.2477 30.7975Z" fill="black"/>
</svg>
